<?xml version="1.0" encoding="UTF-8"?>
<!DOCTYPE svg PUBLIC "-//W3C//DTD SVG 1.1//EN" "http://www.w3.org/Graphics/SVG/1.1/DTD/svg11.dtd">
<!-- Creator: CorelDRAW 2019 (64-Bit Evaluation Version) -->
<svg xmlns="http://www.w3.org/2000/svg" xml:space="preserve" width="1.64601in" height="1.64601in" version="1.1" style="shape-rendering:geometricPrecision; text-rendering:geometricPrecision; image-rendering:optimizeQuality; fill-rule:evenodd; clip-rule:evenodd"
viewBox="0 0 46.26 46.26"
 xmlns:xlink="http://www.w3.org/1999/xlink">
 <defs>
  <style type="text/css">
   <![CDATA[
    .fil2 {fill:none}
    .fil1 {fill:white}
    .fil0 {fill:url(#id3)}
   ]]>
  </style>
    <clipPath id="id0">
     <path d="M-0 0l40.6 0 0 3.2 -36.42 0 -0.98 0 0 38.39 -3.2 0 0 -41.59zm40.6 5.17l0 36.42 -35.43 0 0 -36.42 35.43 0zm1.97 -5.17l3.69 0 0 3.2 -3.69 0 0 -3.2zm3.69 5.17l0 41.09 -41.09 0 0 -2.71 37.4 0 0 -38.39 3.69 0zm-43.06 41.09l-3.2 0 0 -2.71 3.2 0 0 2.71z"/>
    </clipPath>
      <mask id="id1">
  <linearGradient id="id2" gradientUnits="userSpaceOnUse" x1="19.16" y1="35.11" x2="-20.87" y2="-2.08">
   <stop offset="0" style="stop-opacity:0; stop-color:white"/>
   <stop offset="1" style="stop-opacity:1; stop-color:white"/>
  </linearGradient>
       <rect style="fill:url(#id2)" x="-5" y="-3.06" width="54.43" height="50.18"/>
      </mask>
  <linearGradient id="id3" gradientUnits="userSpaceOnUse" x1="-0" y1="23.13" x2="46.26" y2="23.13">
   <stop offset="0" style="stop-opacity:1; stop-color:#003399"/>
   <stop offset="1" style="stop-opacity:1; stop-color:#9900CC"/>
  </linearGradient>
 </defs>
 <g id="Layer_x0020_1">
  <metadata id="CorelCorpID_0Corel-Layer"/>
  <g id="_2083839104944">
   <path class="fil0" d="M-0 0l40.6 0 0 3.2 -36.42 0 -0.98 0 0 38.39 -3.2 0 0 -41.59zm40.6 5.17l0 36.42 -35.43 0 0 -36.42 35.43 0zm1.97 -5.17l3.69 0 0 3.2 -3.69 0 0 -3.2zm3.69 5.17l0 41.09 -41.09 0 0 -2.71 37.4 0 0 -38.39 3.69 0zm-43.06 41.09l-3.2 0 0 -2.71 3.2 0 0 2.71z"/>
   <g style="clip-path:url(#id0)">
    <g>
     <polygon id="1" class="fil1" style="mask:url(#id1)" points="-1.31,47.02 -0,46.26 46.26,0 49.33,-2.96 -4.91,-2.74 "/>
    </g>
   </g>
   <path class="fil2" d="M-0 0l40.6 0 0 3.2 -36.42 0 -0.98 0 0 38.39 -3.2 0 0 -41.59zm40.6 5.17l0 36.42 -35.43 0 0 -36.42 35.43 0zm1.97 -5.17l3.69 0 0 3.2 -3.69 0 0 -3.2zm3.69 5.17l0 41.09 -41.09 0 0 -2.71 37.4 0 0 -38.39 3.69 0zm-43.06 41.09l-3.2 0 0 -2.71 3.2 0 0 2.71z"/>
   <g>
    <rect class="fil1" transform="matrix(1.84698 -0 -0.486421 1.84698 23.5849 11.9106)" width="2.34" height="12.15"/>
    <rect class="fil1" transform="matrix(1.84698 -0 -0.397051 1.50763 29.7989 16.0335)" width="2.34" height="12.15"/>
    <rect class="fil1" transform="matrix(1.84698 -0 -0.146513 0.55632 12.8311 27.5916)" width="2.34" height="12.15"/>
    <rect class="fil1" transform="matrix(1.84698 -0 -0.0629988 0.239211 30.8847 11.9106)" width="2.34" height="12.15"/>
   </g>
  </g>
 </g>
</svg>
